<svg width="154" height="37" viewBox="0 0 154 37" fill="none" xmlns="http://www.w3.org/2000/svg">
<path d="M7.12532 28.0123C7.33188 27.141 7.81036 26.2704 8.56076 25.4004C11.1757 22.3686 14.4677 23.8425 17.809 23.8425C23.5822 23.8425 28.3781 21.2949 32.1965 16.1996C32.4885 14.9434 32.686 13.7118 32.8123 12.5294C29.6101 17.2162 24.609 19.5596 17.809 19.5596C13.5893 19.5596 10.2044 18.4928 7.11346 21.7074C6.23903 22.6168 5.65163 24.0254 5.35127 25.933C5.8768 26.6038 6.46814 27.2969 7.12532 28.0123ZM9.23851 30.1713C11.2315 32.0962 13.648 34.1643 16.488 36.3757C22.956 31.3585 27.2195 27.0788 29.3029 23.5366C29.9422 22.4496 30.478 21.3453 30.925 20.2398C27.3338 24.6495 22.9618 26.7473 17.809 26.5334C13.5986 26.3585 11.45 25.4004 9.98606 28.4846C9.69127 29.1056 9.44209 29.6679 9.23851 30.1713ZM3.26732 22.7737C4.65841 20.114 6.20381 18.4416 7.90353 17.7564C10.9599 16.5243 14.4739 16.7982 17.809 16.9224C24.0423 17.1546 29.1016 14.8218 32.9869 9.92382C33.0171 8.8599 32.9964 7.86066 32.9463 6.94898C29.9009 11.945 24.5775 14.1212 16.9762 13.4775C12.3053 13.082 8.87871 12.2903 5.43399 14.3692C4.11365 15.1661 2.83149 16.6875 1.58751 18.9335C2.02808 20.2151 2.58025 21.5035 3.26732 22.7737ZM0.464375 14.5161C1.77293 13.1421 3.09245 12.1718 4.42294 11.6052C7.46063 10.3114 12.5805 10.5857 16.9762 10.8765C23.4303 11.3035 28.6985 9.32733 32.781 4.94805C32.6693 3.93691 32.5355 3.11424 32.4302 2.53444C29.3029 3.61725 27.2626 4.39537 24.4887 4.3606C22.6438 4.33748 19.9851 2.88395 16.5126 0C13.0155 2.88395 10.3568 4.33748 8.51189 4.3606C5.738 4.39537 3.69777 3.61725 0.570412 2.53444C0.217205 4.47959 -0.457481 9.15832 0.464375 14.5161Z" fill="white"/>
<path d="M51.5768 28.2979C49.1837 28.2979 47.3312 27.5614 46.019 26.0883C44.7069 24.6153 44.0508 22.5315 44.0508 19.8368C44.0508 17.0717 44.7169 14.935 46.0492 13.4268C47.3814 11.9186 49.2793 11.1645 51.7427 11.1645C52.537 11.1645 53.3314 11.25 54.1257 11.4209C54.92 11.5918 55.5434 11.7929 55.9959 12.0242L55.2267 14.1508C54.6737 13.9296 54.0704 13.7461 53.4168 13.6003C52.7633 13.4545 52.1851 13.3816 51.6824 13.3816C48.3241 13.3816 46.6449 15.5232 46.6449 19.8066C46.6449 21.8377 47.0546 23.3962 47.8741 24.4821C48.6936 25.568 49.9077 26.111 51.5165 26.111C52.894 26.111 54.3067 25.8143 55.7546 25.2211V27.4382C54.6485 28.0113 53.256 28.2979 51.5768 28.2979ZM73.9437 19.7161C73.9437 22.4108 73.265 24.5147 71.9076 26.028C70.5502 27.5413 68.675 28.2979 66.282 28.2979C64.8039 28.2979 63.4918 27.951 62.3455 27.2572C61.1992 26.5634 60.3144 25.568 59.691 24.2709C59.0676 22.9739 58.7559 21.4556 58.7559 19.7161C58.7559 17.0214 59.4296 14.9225 60.7769 13.4193C62.1243 11.9161 63.9945 11.1645 66.3875 11.1645C68.7001 11.1645 70.5376 11.9337 71.9001 13.4721C73.2625 15.0105 73.9437 17.0918 73.9437 19.7161ZM61.3501 19.7161C61.3501 21.8276 61.7724 23.4364 62.617 24.5424C63.4616 25.6484 64.7033 26.2014 66.3423 26.2014C67.9812 26.2014 69.2255 25.651 70.0751 24.5499C70.9248 23.4489 71.3496 21.8377 71.3496 19.7161C71.3496 17.6146 70.9248 16.0185 70.0751 14.9275C69.2255 13.8365 67.9712 13.2911 66.3121 13.2911C64.6732 13.2911 63.4364 13.829 62.6019 14.9049C61.7673 15.9807 61.3501 17.5845 61.3501 19.7161ZM80.6855 11.4661V22.1896C80.6855 23.5369 80.9921 24.5424 81.6055 25.206C82.2188 25.8696 83.179 26.2014 84.4862 26.2014C86.2156 26.2014 87.48 25.7289 88.2794 24.7837C89.0787 23.8386 89.4784 22.2952 89.4784 20.1535V11.4661H91.982V27.9962H89.9158L89.5538 25.7791H89.4181C88.9053 26.5936 88.1939 27.217 87.2839 27.6493C86.374 28.0817 85.3358 28.2979 84.1695 28.2979C82.1585 28.2979 80.6528 27.8203 79.6523 26.8651C78.6519 25.9099 78.1517 24.3815 78.1517 22.2801V11.4661H80.6855ZM108.603 27.9962V17.3029C108.603 15.9556 108.296 14.9501 107.683 14.2865C107.069 13.6229 106.109 13.2911 104.802 13.2911C103.072 13.2911 101.806 13.7586 101.001 14.6937C100.197 15.6288 99.7946 17.1722 99.7946 19.324V27.9962H97.291V11.4661H99.3271L99.7343 13.7285H99.8549C100.368 12.914 101.087 12.2831 102.012 11.8356C102.937 11.3882 103.967 11.1645 105.104 11.1645C107.094 11.1645 108.593 11.6446 109.598 12.6048C110.604 13.5651 111.106 15.1009 111.106 17.2125V27.9962H108.603ZM121.588 26.2316C122.031 26.2316 122.458 26.1989 122.87 26.1336C123.283 26.0682 123.609 26.0004 123.851 25.93V27.8454C123.579 27.9761 123.18 28.0842 122.652 28.1697C122.124 28.2551 121.649 28.2979 121.226 28.2979C118.029 28.2979 116.43 26.6137 116.43 23.2453V13.4117H114.062V12.2052L116.43 11.1645L117.486 7.63525H118.934V11.4661H123.73V13.4117H118.934V23.1398C118.934 24.1352 119.17 24.8994 119.643 25.4323C120.115 25.9652 120.764 26.2316 121.588 26.2316ZM134.137 28.2979C131.693 28.2979 129.765 27.5538 128.353 26.0657C126.94 24.5776 126.234 22.5114 126.234 19.8669C126.234 17.2024 126.89 15.0859 128.202 13.5173C129.514 11.9488 131.276 11.1645 133.488 11.1645C135.56 11.1645 137.198 11.8457 138.405 13.2081C139.612 14.5706 140.215 16.3678 140.215 18.6V20.1837H128.828C128.878 22.1242 129.368 23.5972 130.298 24.6027C131.228 25.6082 132.538 26.111 134.227 26.111C136.007 26.111 137.767 25.7389 139.506 24.9949V27.227C138.621 27.6091 137.784 27.8831 136.995 28.049C136.206 28.2149 135.253 28.2979 134.137 28.2979ZM133.458 13.2609C132.131 13.2609 131.073 13.6933 130.283 14.558C129.494 15.4227 129.029 16.6192 128.888 18.1476H137.53C137.53 16.5689 137.178 15.3599 136.475 14.5203C135.771 13.6807 134.765 13.2609 133.458 13.2609ZM152.024 11.1645C152.758 11.1645 153.417 11.2248 154 11.3455L153.653 13.6681C152.969 13.5173 152.366 13.4419 151.843 13.4419C150.506 13.4419 149.362 13.9849 148.412 15.0708C147.462 16.1567 146.987 17.5091 146.987 19.1279V27.9962H144.483V11.4661H146.549L146.836 14.5278H146.957C147.57 13.452 148.309 12.6224 149.174 12.0393C150.038 11.4561 150.989 11.1645 152.024 11.1645Z" fill="white"/>
</svg>
